<?xml version="1.0" standalone="no"?>
<!DOCTYPE svg PUBLIC "-//W3C//DTD SVG 20010904//EN"
 "http://www.w3.org/TR/2001/REC-SVG-20010904/DTD/svg10.dtd">
<svg version="1.0" xmlns="http://www.w3.org/2000/svg"
 width="463.000000pt" height="388.000000pt" viewBox="0 0 463.000000 388.000000"
 preserveAspectRatio="xMidYMid meet">

<g transform="translate(0.000000,388.000000) scale(0.100000,-0.100000)"
fill="#000000" stroke="none">
<path d="M1881 3330 c-87 -21 -174 -126 -187 -227 -4 -31 -3 -210 1 -399 4
-210 3 -344 -2 -344 -5 0 -22 36 -37 80 -75 215 -196 320 -368 320 -40 0 -480
-87 -763 -151 -136 -31 -215 -119 -215 -238 0 -51 12 -94 79 -273 44 -117 138
-377 209 -578 393 -1101 367 -1033 424 -1086 70 -67 146 -88 253 -73 39 6 222
48 408 95 l337 84 378 -45 c207 -25 444 -54 526 -65 81 -11 174 -20 205 -20
111 0 217 79 260 194 17 46 21 80 22 179 1 204 14 426 24 436 6 5 51 5 120 -1
61 -5 207 -18 325 -28 118 -11 216 -17 218 -15 6 6 -16 42 -156 254 -73 112
-136 210 -138 216 -3 6 27 68 67 136 147 254 201 350 197 354 -1 2 -122 8
-268 15 -146 6 -283 12 -305 13 l-40 2 3 246 2 246 -52 10 c-29 6 -60 13 -68
17 -14 6 -18 -31 -32 -291 -8 -164 -13 -301 -9 -304 3 -4 114 -12 246 -18 325
-15 368 -20 361 -38 -3 -8 -52 -91 -107 -185 -56 -94 -104 -179 -106 -189 -3
-10 6 -33 20 -51 13 -18 50 -76 81 -128 32 -52 63 -103 69 -112 6 -9 9 -19 7
-22 -3 -2 -82 0 -175 5 -94 4 -239 12 -323 15 l-152 7 5 -84 c15 -235 25 -438
25 -521 0 -82 -3 -98 -24 -129 -39 -57 -83 -73 -180 -65 -45 4 -108 11 -141
16 -56 8 -107 14 -315 40 -478 57 -591 72 -629 82 -56 15 -115 71 -130 123
-13 46 -15 541 -3 549 4 3 39 2 78 -2 l69 -7 6 -165 c3 -91 7 -188 8 -217 1
-61 26 -97 46 -69 15 20 32 21 32 2 0 -8 -6 -12 -14 -9 -7 3 -13 0 -13 -6 0
-6 12 -11 28 -12 55 -2 199 -23 342 -49 30 -5 198 -28 373 -50 340 -43 351
-43 363 6 4 14 1 149 -6 299 l-13 273 -121 6 c-217 11 -955 45 -1226 56 -146
6 -360 15 -475 20 -226 11 -451 13 -443 5 21 -21 440 -85 688 -105 74 -6 140
-13 147 -15 8 -3 12 -78 15 -272 3 -255 4 -270 26 -313 12 -25 35 -60 51 -78
16 -17 26 -34 22 -36 -3 -3 -137 -37 -297 -76 -262 -65 -294 -71 -331 -61 -63
17 -89 44 -118 124 -15 39 -35 95 -45 122 -10 28 -33 91 -50 140 -17 50 -40
113 -50 140 -10 28 -37 102 -60 165 -23 63 -50 138 -60 165 -10 28 -37 100
-59 160 -22 61 -92 254 -156 430 -167 457 -162 435 -107 495 29 32 51 38 467
125 94 19 198 42 232 50 131 32 236 12 281 -52 15 -23 45 -93 109 -259 3 -7
-30 -13 -99 -17 -116 -6 -258 -27 -258 -38 0 -3 57 -10 128 -13 70 -4 195 -11
277 -16 162 -10 407 -22 915 -45 179 -8 373 -18 431 -21 59 -4 109 -3 112 2 2
5 1 86 -4 179 -5 94 -13 261 -19 373 -5 112 -14 211 -19 221 -14 25 -51 37
-151 50 -47 6 -134 18 -195 27 -60 9 -137 20 -170 24 -33 5 -123 17 -200 29
-330 47 -336 47 -350 13 -4 -9 -7 -200 -5 -424 l2 -408 -75 0 c-59 0 -76 3
-81 16 -3 9 -6 201 -6 428 l0 413 23 34 c32 48 83 79 128 79 20 0 228 -27 461
-60 232 -33 459 -65 503 -71 44 -6 99 -20 121 -30 42 -20 85 -72 97 -119 4
-14 16 -193 27 -399 11 -205 23 -377 26 -382 8 -14 64 -11 64 4 0 43 -41 741
-45 782 -16 135 -106 231 -238 255 -126 23 -981 140 -1015 139 -20 -1 -52 -5
-71 -9z m169 -2340 c0 -5 -12 -10 -27 -9 l-28 1 25 8 c14 4 26 8 28 9 1 1 2
-3 2 -9z"/>
<path d="M1260 2540 c-57 -57 31 -139 90 -85 26 24 25 59 -2 85 -28 25 -62 26
-88 0z m64 -38 c9 -14 -12 -35 -28 -29 -23 9 -20 37 3 37 11 0 22 -4 25 -8z"/>
<path d="M1129 2496 c-2 -2 -58 -16 -124 -31 -66 -15 -126 -31 -132 -37 -19
-15 -16 -42 7 -63 20 -18 25 -18 167 13 81 18 152 37 160 43 16 14 17 51 1 67
-11 11 -69 17 -79 8z"/>
<path d="M820 2072 l0 -61 83 -3 82 -3 0 -220 0 -220 73 -3 72 -3 0 221 0 220
85 0 85 0 0 54 c0 30 -3 57 -7 59 -5 3 -113 8 -240 12 l-233 8 0 -61z"/>
<path d="M2207 2123 c-2 -4 -6 -143 -8 -308 l-4 -300 68 -3 67 -3 0 134 c0
129 1 134 25 157 28 26 75 31 99 10 13 -10 16 -38 16 -156 0 -78 3 -145 8
-147 4 -3 34 -6 67 -8 l60 -4 0 170 c0 160 -1 172 -23 207 -43 69 -153 87
-223 37 l-29 -20 0 115 0 116 -37 0 c-21 0 -48 3 -59 6 -12 3 -24 2 -27 -3z"/>
<path d="M2813 2081 c-46 -21 -70 -58 -81 -124 -6 -36 -11 -42 -35 -45 -26 -3
-27 -6 -27 -58 0 -53 0 -54 30 -54 l30 0 0 -154 0 -154 58 -5 c31 -2 60 -3 65
0 4 2 7 71 7 153 l0 149 53 3 52 3 0 55 0 55 -50 5 c-46 5 -50 7 -47 30 3 35
30 52 70 45 l32 -6 0 54 c0 53 -1 55 -31 61 -51 10 -81 7 -126 -13z"/>
<path d="M3094 2088 c-22 -5 -36 -18 -44 -39 -11 -27 -11 -33 7 -57 11 -15 32
-31 47 -36 57 -21 113 68 71 114 -21 24 -43 28 -81 18z"/>
<path d="M1409 1967 c-97 -36 -144 -108 -143 -217 1 -137 85 -220 222 -220 64
0 110 15 155 50 36 28 34 40 -9 69 l-35 24 -38 -21 c-55 -31 -96 -29 -133 8
-16 17 -28 35 -26 42 3 8 47 10 148 9 l143 -2 -6 66 c-8 85 -42 147 -97 175
-51 26 -135 34 -181 17z m129 -119 c41 -39 29 -48 -58 -48 -83 0 -89 4 -69 41
22 43 84 46 127 7z"/>
<path d="M1867 1945 c-85 -30 -130 -104 -131 -210 0 -54 5 -80 22 -112 63
-120 233 -151 345 -63 38 30 34 55 -13 86 l-41 27 -27 -26 c-37 -36 -89 -37
-121 -3 -64 68 -34 206 46 206 28 0 63 -17 79 -38 14 -20 44 -9 80 29 l29 30
-37 34 c-58 53 -150 69 -231 40z"/>
<path d="M3050 1685 l0 -215 65 0 c59 0 65 2 70 23 3 12 4 108 3 212 l-3 190
-67 3 -68 3 0 -216z"/>
<path d="M3255 1889 c-2 -3 25 -48 61 -99 35 -51 64 -97 64 -102 0 -5 -31 -56
-70 -113 -38 -57 -70 -107 -70 -110 0 -3 33 -5 73 -5 l74 0 38 65 c20 35 41
62 46 59 5 -3 25 -33 45 -67 20 -34 41 -65 48 -69 12 -8 146 -11 146 -3 0 2
-34 56 -75 118 -41 63 -75 118 -75 122 0 4 27 43 60 86 86 113 86 109 -3 109
l-75 0 -32 -50 c-18 -27 -34 -50 -36 -50 -2 0 -20 24 -39 54 l-35 54 -71 4
c-39 2 -73 0 -74 -3z"/>
<path d="M2503 774 c-7 -3 -13 -19 -13 -34 0 -36 23 -50 94 -57 40 -4 55 -2
65 11 19 22 6 63 -21 69 -43 10 -113 16 -125 11z m126 -39 c21 -21 4 -35 -43
-35 -50 0 -82 19 -73 44 6 14 15 16 54 11 27 -4 54 -13 62 -20z"/>
</g>
</svg>
